<svg clip-rule="evenodd" fill-rule="evenodd" stroke-linejoin="round" stroke-miterlimit="2" viewBox="0 0 32 32" xmlns="http://www.w3.org/2000/svg"><path d="m6.808 26.607 1.414-1.415c.39-.39.39-1.024 0-1.414s-1.024-.39-1.414 0l-1.415 1.414c-.39.391-.39 1.024 0 1.415.391.39 1.024.39 1.415 0zm19.799-1.415-1.415-1.414c-.39-.39-1.024-.39-1.414 0s-.39 1.024 0 1.414l1.414 1.415c.391.39 1.024.39 1.415 0 .39-.391.39-1.024 0-1.415zm-10.607-5.192c.552 0 1 .448 1 1s-.448 1-1 1-1-.448-1-1 .448-1 1-1zm-1-5c0-.552.448-1 1-1s1 .448 1 1-.448 1-1 1-1 .448-1 1v1c0 .552.448 1 1 1s1-.448 1-1v-.171c1.165-.412 2-1.524 2-2.829 0-1.656-1.344-3-3-3s-3 1.344-3 3c0 .552.448 1 1 1s1-.448 1-1zm-13 2h2c.552 0 1-.448 1-1s-.448-1-1-1h-2c-.552 0-1 .448-1 1s.448 1 1 1zm26 0h2c.552 0 1-.448 1-1s-.448-1-1-1h-2c-.552 0-1 .448-1 1s.448 1 1 1zm-2.808-8.778 1.415-1.414c.39-.391.39-1.024 0-1.415-.391-.39-1.024-.39-1.415 0l-1.414 1.415c-.39.39-.39 1.024 0 1.414s1.024.39 1.414 0zm-16.97-1.414-1.414-1.415c-.391-.39-1.024-.39-1.415 0-.39.391-.39 1.024 0 1.415l1.415 1.414c.39.39 1.024.39 1.414 0s.39-1.024 0-1.414zm8.778-2.808v-2c0-.552-.448-1-1-1s-1 .448-1 1v2c0 .552.448 1 1 1s1-.448 1-1z" fill="#ff4b07"/><path d="m12 24.644v2.356c0 1.061.421 2.078 1.172 2.828.75.751 1.767 1.172 2.828 1.172s2.078-.421 2.828-1.172c.751-.75 1.172-1.767 1.172-2.828 0-.517 0-1.679.014-2.335.001-.007.001-.014.001-.022 0-.353.189-.679.495-.855.002-.001.004-.002.006-.003 2.68-1.559 4.484-4.463 4.484-7.785 0-4.967-4.033-9-9-9s-9 4.033-9 9c0 3.324 1.806 6.23 4.496 7.775 0 .001.001.001.001.001.311.178.503.509.503.868zm6 2.356c0 .53-.211 1.039-.586 1.414s-.884.586-1.414.586-1.039-.211-1.414-.586-.586-.884-.586-1.414zm-4-2.357c0-1.075-.576-2.068-1.509-2.602-2.089-1.201-3.491-3.458-3.491-6.041 0-3.863 3.137-7 7-7s7 3.137 7 7c0 2.585-1.404 4.844-3.49 6.056-.923.529-1.495 1.517-1.495 2.587-.003.111-.005.236-.007.357h-4.008z" fill="#414042"/></svg>